<svg id="Capa_1" enable-background="new 0 0 512 512" height="512" viewBox="0 0 512 512" width="512" xmlns="http://www.w3.org/2000/svg"><g><path d="m241 135h30v30h-30z"/><path d="m241 195h30v30h-30z"/><path d="m512 48.525-179.003-48.525h-153.994l-179.003 48.525v146.475h91v317h330v-317h91zm-197.899-18.525c-6.677 25.849-30.195 45-58.101 45s-51.424-19.151-58.101-45zm167.899 135h-61v-60h-30v377h-270v-377h-30v60h-61v-93.525l138.037-37.42c8.766 40.504 44.874 70.945 87.963 70.945s79.197-30.441 87.963-70.945l138.037 37.42z"/></g></svg>