<?xml version="1.0" encoding="iso-8859-1"?>
<!-- Generator: Adobe Illustrator 19.0.0, SVG Export Plug-In . SVG Version: 6.00 Build 0)  -->
<svg version="1.1" id="Capa_1" xmlns="http://www.w3.org/2000/svg" xmlns:xlink="http://www.w3.org/1999/xlink" x="0px" y="0px"
	 viewBox="0 0 512 512" style="enable-background:new 0 0 512 512;" xml:space="preserve">
<g>
	<g>
		<path d="M476,282V176.951c0-23.449-16.745-43.514-39.816-47.708c-8.798-1.6-15.184-9.251-15.184-18.193V0H311v111.049
			c0,8.942-6.386,16.593-15.184,18.193c-12.076,2.196-22.412,8.744-29.527,17.844l-87.043-87.044
			c-40.94-40.94-107.553-40.938-148.492,0c-40.939,40.939-40.939,107.552,0,148.492L104.219,282H0v100h13.131l14.13,91.842
			C30.662,495.953,49.368,512,71.738,512h368.524c22.37,0,41.076-16.047,44.477-38.158L498.869,382H512V282H476z M341,30h50v30h-50
			V30z M286,176.951c0-8.942,6.386-16.593,15.184-18.193C324.255,154.563,341,134.499,341,111.049V90h50v21.049
			c0,23.449,16.745,43.514,39.816,47.708c8.798,1.6,15.184,9.251,15.184,18.193V202h-80v80h-80V176.951z M446,232v50h-50v-50H446z
			 M51.967,187.322c-29.242-29.243-29.242-76.824,0-106.066s76.823-29.242,106.066,0L256,179.223V282H146.645L51.967,187.322z
			 M455.088,469.281c-1.134,7.37-7.369,12.719-14.826,12.719H71.738c-7.457,0-13.692-5.349-14.826-12.719L43.484,382h425.031
			L455.088,469.281z M482,352H30v-40h452V352z"/>
	</g>
</g>
<g>
	<g>
		<path d="M66.665,160.453h30c0-19.022,15.476-34.498,34.498-34.498v-30C95.599,95.955,66.665,124.889,66.665,160.453z"/>
	</g>
</g>
<g>
	<g>
		<path d="M114.277,208.064h30c0-19.022,15.476-34.498,34.498-34.498v-30C143.211,143.566,114.277,172.5,114.277,208.064z"/>
	</g>
</g>
<g>
	<g>
		<path d="M161.889,255.676h30c0-19.022,15.476-34.497,34.498-34.497v-30C190.823,191.179,161.889,220.112,161.889,255.676z"/>
	</g>
</g>
<g>
</g>
<g>
</g>
<g>
</g>
<g>
</g>
<g>
</g>
<g>
</g>
<g>
</g>
<g>
</g>
<g>
</g>
<g>
</g>
<g>
</g>
<g>
</g>
<g>
</g>
<g>
</g>
<g>
</g>
</svg>
